<svg width="65" height="20" viewBox="0 0 65 20" fill="none" xmlns="http://www.w3.org/2000/svg">
<path d="M9.67456 0.536972C9.67456 0.24041 9.42362 0 9.11406 0C8.8045 0 8.55356 0.24041 8.55356 0.536972V3.62899C8.55356 3.78584 8.35561 3.86439 8.23984 3.75348L6.59022 2.17312C6.37133 1.96342 6.01644 1.96342 5.79755 2.17312C5.57866 2.38282 5.57866 2.72281 5.79755 2.93251L8.23061 5.26342C8.43739 5.46152 8.55356 5.73021 8.55356 6.01036V8.76202C8.55356 8.89755 8.40041 8.98226 8.2779 8.91449L5.78251 7.53427C5.52925 7.39419 5.34445 7.16346 5.26877 6.89285L4.37821 3.70877C4.29809 3.42231 3.99074 3.25231 3.69173 3.32907C3.39272 3.40583 3.21528 3.70027 3.2954 3.98672L3.8992 6.14554C3.94157 6.29705 3.77159 6.422 3.6298 6.34358L0.842645 4.80197C0.57456 4.65369 0.231761 4.74168 0.0769826 4.99851C-0.0777961 5.25534 0.0140564 5.58375 0.282141 5.73203L3.0724 7.27536C3.21419 7.35378 3.18623 7.55729 3.02808 7.59788L0.769764 8.17759C0.470755 8.25435 0.293309 8.54879 0.373429 8.83525C0.453548 9.1217 0.760893 9.2917 1.0599 9.21494L4.38841 8.36051C4.67088 8.288 4.97185 8.32596 5.22511 8.46604L7.71919 9.84555C7.8417 9.91331 7.8417 10.0827 7.71919 10.1505L5.22021 11.5327C4.96695 11.6728 4.66598 11.7107 4.38351 11.6382L1.0599 10.7851C0.760893 10.7083 0.453549 10.8783 0.373429 11.1648C0.29331 11.4512 0.470755 11.7457 0.769765 11.8224L3.02318 12.4009C3.18133 12.4415 3.20929 12.645 3.0675 12.7234L0.280345 14.265C0.0122606 14.4133 -0.0795919 14.7417 0.0751868 14.9985C0.229965 15.2553 0.572764 15.3433 0.840849 15.1951L3.63112 13.6517C3.77291 13.5733 3.94289 13.6983 3.90051 13.8498L3.2954 16.0133C3.21528 16.2997 3.39272 16.5942 3.69173 16.6709C3.99074 16.7477 4.29809 16.5777 4.37821 16.2912L5.27008 13.1025C5.34577 12.8318 5.53057 12.6011 5.78382 12.461L8.2779 11.0815C8.40041 11.0138 8.55356 11.0985 8.55356 11.234V13.9984C8.55356 14.2786 8.43739 14.5473 8.23061 14.7454L5.79755 17.0763C5.57866 17.286 5.57866 17.626 5.79755 17.8357C6.01644 18.0454 6.37133 18.0454 6.59022 17.8357L8.23984 16.2553C8.35561 16.1444 8.55356 16.223 8.55356 16.3798V19.463C8.55356 19.7596 8.8045 20 9.11406 20C9.42362 20 9.67456 19.7596 9.67456 19.463V16.3764C9.67456 16.2195 9.87251 16.141 9.98828 16.2519L11.6415 17.8357C11.8604 18.0454 12.2153 18.0454 12.4342 17.8357C12.653 17.626 12.653 17.286 12.4342 17.0763L9.99752 14.7419C9.79073 14.5438 9.67456 14.2752 9.67456 13.995V11.232C9.67456 11.0965 9.82771 11.0118 9.95022 11.0796L12.4399 12.4566C12.6932 12.5967 12.878 12.8275 12.9537 13.0981L13.8456 16.2868C13.9257 16.5733 14.233 16.7433 14.532 16.6665C14.831 16.5898 15.0085 16.2953 14.9284 16.0089L14.3232 13.8454C14.2809 13.6939 14.4509 13.5689 14.5926 13.6473L17.3909 15.1951C17.6589 15.3433 18.0017 15.2553 18.1565 14.9985C18.3113 14.7417 18.2194 14.4133 17.9514 14.265L15.1562 12.719C15.0145 12.6406 15.0424 12.4371 15.2006 12.3965L17.454 11.818C17.753 11.7413 17.9305 11.4468 17.8503 11.1604C17.7702 10.8739 17.4629 10.7039 17.1639 10.7807L13.8402 11.6338C13.5578 11.7063 13.2568 11.6684 13.0035 11.5283L10.5125 10.1505C10.39 10.0827 10.39 9.91331 10.5125 9.84555L12.9986 8.47044C13.2519 8.33036 13.5529 8.2924 13.8353 8.36491L17.1639 9.21935C17.4629 9.2961 17.7702 9.12611 17.8503 8.83965C17.9305 8.55319 17.753 8.25875 17.454 8.182L15.1957 7.60228C15.0375 7.56169 15.0096 7.35818 15.1513 7.27976L17.9496 5.73203C18.2177 5.58375 18.3095 5.25534 18.1547 4.99851C17.9999 4.74168 17.6571 4.65369 17.3891 4.80197L14.594 6.34797C14.4522 6.4264 14.2822 6.30144 14.3246 6.14994L14.9284 3.99113C15.0085 3.70467 14.831 3.41023 14.532 3.33347C14.233 3.25672 13.9257 3.42671 13.8456 3.71317L12.955 6.89724C12.8793 7.16786 12.6945 7.39858 12.4413 7.53866L9.95022 8.91648C9.82771 8.98424 9.67456 8.89954 9.67456 8.76401V6.0138C9.67456 5.73364 9.79073 5.46496 9.99752 5.26686L12.4342 2.93251C12.653 2.72281 12.653 2.38282 12.4342 2.17312C12.2153 1.96342 11.8604 1.96342 11.6415 2.17312L9.98828 3.75692C9.87251 3.86783 9.67456 3.78928 9.67456 3.63243V0.536972Z" fill="#95A4FC"/>
<path d="M38.8415 14.6154V9.23077C38.8415 7.95626 37.7768 6.92307 36.4634 6.92307C35.1501 6.92307 34.0854 7.95626 34.0854 9.23077V14.6154H32.5V9.23077C32.5 7.1066 34.2745 5.38461 36.4634 5.38461C38.6523 5.38461 40.4268 7.1066 40.4268 9.23077V14.6154H38.8415Z" fill="#1C1C1C"/>
<path fill-rule="evenodd" clip-rule="evenodd" d="M47.561 13.0769C49.3121 13.0769 50.7317 11.6993 50.7317 10C50.7317 8.30066 49.3121 6.92307 47.561 6.92307C45.8098 6.92307 44.3902 8.30066 44.3902 10C44.3902 11.6993 45.8098 13.0769 47.561 13.0769ZM47.561 14.6154C50.1877 14.6154 52.3171 12.549 52.3171 10C52.3171 7.45099 50.1877 5.38461 47.561 5.38461C44.9342 5.38461 42.8049 7.45099 42.8049 10C42.8049 12.549 44.9342 14.6154 47.561 14.6154Z" fill="#95A4FC"/>
<path d="M53.9024 5.38461L55.3965 13.3473C55.7064 14.9991 57.9792 15.0526 58.3619 13.4172L59.2476 8.87832C59.2801 8.71158 59.5104 8.71498 59.5384 8.88262L60.2836 13.3498C60.6144 14.9989 62.8907 15.0201 63.2503 13.3774L65 5.38461H63.4612L61.9216 13.0465C61.8885 13.2112 61.6616 13.209 61.6314 13.0437L60.233 5.38461H58.6841L57.0464 13.069C57.0114 13.2331 56.7848 13.2283 56.7563 13.0628L55.4339 5.38461H53.9024Z" fill="#1C1C1C"/>
<path d="M26.4724 14.6154C27.5858 14.6154 28.4724 14.3902 29.1322 13.9212C29.792 13.4522 30.1219 12.8143 30.1219 11.97C30.1219 11.2383 29.8539 10.6942 29.3384 10.3002C28.8023 9.90619 28.1013 9.56848 27.2147 9.26829C26.6167 9.04315 26.1013 8.83677 25.7095 8.64915C25.3177 8.46154 25.1115 8.18011 25.1115 7.80488C25.1115 7.46716 25.2559 7.2045 25.5652 7.03565C25.8744 6.86679 26.2868 6.79174 26.8023 6.79174C27.1941 6.79174 27.5858 6.84803 27.957 6.9606C28.3075 7.07317 28.6786 7.22326 29.0704 7.42964L29.7096 6.15384C29.2766 5.89118 28.8023 5.70356 28.3075 5.57223C27.8126 5.4409 27.3178 5.38461 26.8023 5.38461C25.7713 5.38461 24.9466 5.59099 24.3074 6.02251C23.6682 6.45403 23.3589 7.05441 23.3796 7.82364C23.4002 8.53658 23.6682 9.08067 24.2043 9.45591C24.7198 9.83114 25.4208 10.1689 26.3074 10.469C26.9054 10.6754 27.4002 10.8818 27.792 11.0882C28.1838 11.2946 28.3693 11.6135 28.3693 12.0263C28.3693 12.4015 28.2044 12.6829 27.8745 12.8893C27.524 13.0957 27.0497 13.1895 26.4105 13.1895C25.9775 13.1895 25.5239 13.1144 25.0703 12.9831C24.6167 12.8518 24.1425 12.6454 23.627 12.3265L22.9878 13.6585C23.5033 13.9587 24.06 14.1839 24.6167 14.3527C25.1734 14.5216 25.792 14.6154 26.4724 14.6154Z" fill="#1C1C1C"/>
</svg>
